<?xml version="1.0" standalone="no"?><!DOCTYPE svg PUBLIC "-//W3C//DTD SVG 1.1//EN" "http://www.w3.org/Graphics/SVG/1.1/DTD/svg11.dtd"><svg t="1599851025995" class="icon" viewBox="0 0 1280 1024" version="1.1" xmlns="http://www.w3.org/2000/svg" p-id="5159" xmlns:xlink="http://www.w3.org/1999/xlink" width="250" height="200"><defs><style type="text/css"></style></defs><path d="M1264 0h-32c-8.8 0-16 8.2-16 18.2V384h-128V96c0-17.6-14.4-32-32-32H736c-17.6 0-32 14.4-32 32v288H64V18.2c0-10-7.2-18.2-16-18.2H16C7.2 0 0 8.2 0 18.2V1024h64v-64h1152v64h64V18.2c0-10-7.2-18.2-16-18.2zM768 128h256v256H768V128zM512 896H256V640h256v256z m64 0V640h256v256H576z m640 0H896V608c0-17.6-14.4-32-32-32H224c-17.6 0-32 14.4-32 32v288H64V448h1152v448z" p-id="5160" fill="#ffffff"></path></svg>