<?xml version="1.0" standalone="no"?><!DOCTYPE svg PUBLIC "-//W3C//DTD SVG 1.1//EN" "http://www.w3.org/Graphics/SVG/1.1/DTD/svg11.dtd"><svg t="1599850736523" class="icon" viewBox="0 0 1035 1024" version="1.1" xmlns="http://www.w3.org/2000/svg" p-id="3497" xmlns:xlink="http://www.w3.org/1999/xlink" width="202.1484375" height="200"><defs><style type="text/css"></style></defs><path d="M521.94 872.149c-99.807 0-189.988-41.334-254.607-107.852l89.496-99.201-339.436-85.063L136.845 909.01l67.997-75.388c81.228 81.228 193.25 131.47 317.098 131.47 186.349 0 346.223-113.871 413.951-276.025H832.52c-60.825 109.1-177.324 183.083-310.58 183.083M509.462 128.05c132.197 0 247.783 72.658 309.065 180.224l-100.08 74.08 315.812 150.684-51.873-346.112-88.777 65.699C815.15 122.309 672.487 35.086 509.462 35.086c-205.346 0-378.456 138.246-431.696 326.96h97.647c49.98-136.403 180.889-233.996 334.05-233.996" fill="#ffffff" p-id="3498"></path><path d="M715.001 545.681V474.52h-30.224c-4.477-21.475-12.97-41.522-24.728-59.345l22.531-22.43-50.248-50.3L609.5 365.29c-17.937-11.586-38.036-19.891-59.612-24.08v-26.868h-71.104v27.608c-20.477 4.57-39.514 12.777-56.466 23.834l-24.043-23.987-50.248 50.247L372 415.991a168.131 168.131 0 0 0-24.118 58.53h-32.234v71.161h32.842c4.547 20.444 12.778 39.592 24.037 56.546l-22.523 22.564 50.287 50.24 22.83-22.823c16.758 10.844 35.57 18.843 55.666 23.243v28.215h71.104v-27.342a172.615 172.615 0 0 0 58.812-23.552L630.4 674.43l50.243-50.286-21.117-21.01c11.564-17.29 20.02-36.781 24.608-57.452h30.868zM516.33 630.016c-67.426 0-122.26-54.38-122.26-121.255s54.834-121.267 122.26-121.267c67.347 0 122.297 54.393 122.297 121.267 0 66.876-54.949 121.255-122.297 121.255" fill="#ffffff" p-id="3499"></path><path d="M515.341 417.43c-51.04 0-92.602 41.012-92.602 91.547 0 50.467 41.56 91.537 92.602 91.537 51.007 0 92.528-41.07 92.528-91.537 0-50.535-41.521-91.547-92.528-91.547m0 153.278c-34.662 0-62.798-27.714-62.798-61.73 0-34.073 28.136-61.798 62.798-61.798 34.584 0 62.725 27.725 62.725 61.797 0 34.017-28.141 61.731-62.725 61.731" fill="#ffffff" p-id="3500"></path><path d="M515.341 477.003c-18.277 0-33.068 14.298-33.068 31.952 0 17.632 14.792 32.026 33.068 32.026 18.166 0 32.994-14.392 32.994-32.026 0-17.654-14.828-31.952-32.994-31.952" fill="#ffffff" p-id="3501"></path></svg>